<svg width="748" height="767" viewBox="0 0 748 767" fill="none" xmlns="http://www.w3.org/2000/svg">
<path fill-rule="evenodd" clip-rule="evenodd" d="M178.221 366.828L85.2699 358.389L76.2286 457.98L182.445 467.623L0 591.957L56.3152 674.593L178.109 591.592L124.418 687.34L211.64 736.25L270.669 630.983L269.106 692.198L369.074 694.749L370.804 626.958L442.487 766.102L531.384 720.304L444.159 550.993L700.442 689.071L747.873 601.035L550.584 494.742L612.463 498.654L618.772 398.853L469.562 389.42L626.722 277.475L568.705 196.025L433.456 292.363L533.505 36.4056L440.367 0L328.649 285.811L280.178 145.799L185.681 178.513L216.344 267.088L75.7973 142.996L9.61114 217.958L178.221 366.828Z" fill="white"/>
<path fill-rule="evenodd" clip-rule="evenodd" d="M178.221 366.828L85.2699 358.389L76.2286 457.98L182.445 467.623L0 591.957L56.3152 674.593L178.109 591.592L124.418 687.34L211.64 736.25L270.669 630.983L269.106 692.198L369.074 694.749L370.804 626.958L442.487 766.102L531.384 720.304L444.159 550.993L700.442 689.071L747.873 601.035L550.584 494.742L612.463 498.654L618.772 398.853L469.562 389.42L626.722 277.475L568.705 196.025L433.456 292.363L533.505 36.4056L440.367 0L328.649 285.811L280.178 145.799L185.681 178.513L216.344 267.088L75.7973 142.996L9.61114 217.958L178.221 366.828Z" fill="#00503F" fill-opacity="0.08"/>
</svg>
